<?xml version="1.0" standalone="no"?>
<!DOCTYPE svg PUBLIC "-//W3C//DTD SVG 20010904//EN"
 "http://www.w3.org/TR/2001/REC-SVG-20010904/DTD/svg10.dtd">
<svg version="1.0" xmlns="http://www.w3.org/2000/svg"
 width="1024.000000pt" height="1536.000000pt" viewBox="0 0 1024.000000 1536.000000"
 preserveAspectRatio="xMidYMid meet">

<g transform="translate(0.000000,1536.000000) scale(0.100000,-0.100000)"
fill="#000000" stroke="none">
<path d="M0 7680 l0 -7680 5120 0 5120 0 0 7680 0 7680 -5120 0 -5120 0 0
-7680z m6930 3830 c388 -28 677 -141 907 -355 191 -176 315 -418 375 -729 22
-110 22 -122 26 -1771 4 -1916 4 -1912 -80 -2175 -156 -487 -531 -791 -1081
-876 -82 -13 -214 -17 -687 -19 l-585 -2 565 7 c321 4 602 13 650 19 129 18
250 43 250 52 0 5 -12 4 -26 -1 -14 -6 -32 -10 -41 -10 -13 0 -13 3 -3 15 7 8
18 15 25 15 7 0 15 7 19 15 5 13 2 13 -19 -1 -14 -9 -31 -14 -39 -11 -11 4
-13 1 -10 -11 3 -9 -2 -6 -10 8 -8 14 -16 21 -16 15 0 -5 -5 -3 -10 5 -17 26
-11 31 15 14 37 -24 28 1 -15 43 -31 31 -32 34 -12 30 18 -4 21 -3 13 7 -6 7
-7 16 -3 21 4 4 -4 5 -16 2 -13 -3 -21 -3 -18 0 3 3 1 15 -5 27 -9 19 -9 19 4
4 19 -24 28 -22 23 5 -2 15 -9 21 -22 19 -16 -3 -16 -2 -3 14 12 16 12 17 -3
11 -21 -7 -35 10 -20 25 8 8 16 7 27 -2 12 -10 15 -10 15 4 0 10 -4 15 -9 11
-5 -3 -13 0 -17 6 -4 8 -9 7 -16 -2 -7 -11 -9 -9 -7 6 2 34 0 38 -18 24 -10
-7 -15 -9 -11 -5 4 5 0 15 -10 23 -15 13 -15 13 6 3 16 -8 22 -8 22 1 0 8 4 8
15 -1 13 -11 14 -10 9 4 -3 9 -10 16 -15 16 -4 0 -5 8 -2 17 6 15 5 16 -9 3
-9 -8 -13 -19 -10 -25 3 -6 1 -6 -4 -2 -5 5 -9 12 -9 15 0 4 -3 12 -6 17 -11
18 -20 50 -13 42 9 -9 34 12 34 29 0 8 -5 14 -11 14 -5 0 -7 -4 -4 -10 3 -6
-1 -7 -9 -4 -19 7 -21 34 -3 35 9 0 9 2 0 5 -7 3 -10 13 -7 22 3 9 -2 5 -11
-10 -18 -33 -31 -38 -14 -7 10 20 9 21 -10 16 -22 -5 -21 3 7 36 14 15 13 17
-1 17 -10 0 -17 -6 -17 -12 -1 -7 -9 -3 -19 9 -10 12 -22 19 -26 15 -5 -4 -5
-1 -1 6 4 6 13 12 19 12 13 1 57 35 57 45 0 3 -5 3 -12 -1 -7 -4 -26 -9 -43
-11 -22 -2 -26 0 -15 7 13 9 7 14 -12 11 -4 0 -5 6 -2 14 4 8 1 15 -6 15 -9 0
-7 7 5 20 10 11 16 20 14 21 -2 0 -11 2 -20 4 -12 2 -15 -5 -14 -30 0 -19 -2
-32 -6 -30 -3 2 -7 26 -8 52 -3 69 -3 73 -13 67 -5 -3 -6 -10 -3 -15 4 -5 1
-9 -4 -9 -15 0 -14 23 1 38 10 10 10 15 -1 21 -8 5 -11 15 -8 23 3 8 1 21 -5
29 -8 11 -9 10 -4 -5 5 -14 2 -17 -10 -12 -10 4 -25 -1 -35 -10 -18 -17 -19
-16 -8 15 6 18 9 35 5 38 -3 4 -6 1 -6 -6 0 -9 -5 -8 -15 3 -13 12 -14 20 -5
38 10 21 10 21 -3 6 -13 -17 -15 -17 -30 0 -10 10 -14 28 -12 42 3 14 3 19 -1
13 -4 -9 -11 -9 -30 3 -13 9 -24 12 -25 8 -1 -5 -4 2 -8 16 -4 14 -13 24 -19
23 -7 -2 -12 4 -12 13 0 8 -4 12 -10 9 -6 -3 -7 1 -4 9 3 9 1 16 -6 16 -6 0
-8 5 -5 10 10 16 -7 12 -28 -8 -11 -9 -17 -12 -13 -5 3 7 21 22 39 35 18 13
27 15 19 6 -10 -13 -10 -19 3 -32 21 -21 24 -20 18 4 -3 11 0 27 7 35 11 13
10 14 -4 9 -14 -6 -21 5 -17 29 1 9 4 10 -59 -13 -68 -25 -79 -25 -48 -1 13
11 32 19 42 18 11 -1 21 5 23 13 3 11 2 12 -5 2 -9 -14 -45 -5 -36 9 3 5 -2 6
-10 3 -9 -3 -16 -12 -16 -19 0 -8 -6 -17 -12 -21 -7 -4 -10 -4 -6 1 4 4 3 14
-3 21 -8 10 -3 17 23 28 l33 15 -30 -6 c-16 -3 -34 -8 -40 -12 -5 -3 -14 -6
-20 -7 -76 -13 -74 -10 10 15 55 17 106 28 113 26 7 -3 10 -1 7 4 -7 12 31 24
47 15 7 -4 10 -4 6 0 -4 5 41 33 100 63 133 68 216 126 315 222 66 64 177 213
177 237 0 4 -27 -33 -60 -83 -160 -244 -487 -437 -850 -502 -305 -56 -582 -52
-960 11 -112 18 -137 19 -245 9 -529 -50 -1040 7 -1535 170 -239 78 -356 146
-480 275 -64 67 -150 186 -150 208 0 4 27 -12 61 -35 79 -53 279 -149 394
-188 278 -94 679 -202 895 -241 125 -22 493 -71 498 -65 2 2 -23 11 -55 20
-170 49 -621 233 -823 335 -41 21 -147 59 -235 85 -374 111 -667 257 -847 423
-109 101 -137 157 -107 215 17 32 51 67 65 67 8 0 45 -29 84 -64 86 -77 196
-156 313 -225 l88 -51 -79 98 c-136 167 -207 287 -290 482 -52 124 -68 188
-55 225 12 37 54 68 92 68 52 0 77 -25 101 -104 90 -298 341 -628 657 -866
405 -304 1041 -534 1808 -654 168 -26 486 -36 622 -20 303 38 581 136 862 306
61 36 114 71 118 78 4 7 -6 3 -22 -7 -87 -58 -241 -144 -323 -183 -130 -60
-327 -126 -355 -118 -17 5 -19 4 -7 -4 13 -9 12 -11 -5 -11 -11 0 -31 -3 -45
-5 -23 -5 -23 -4 3 6 32 12 36 29 7 29 -11 0 -20 5 -20 10 0 6 -7 10 -15 10
-8 0 -15 -4 -15 -9 0 -5 -11 -8 -25 -7 -14 0 -25 4 -25 9 0 4 -5 7 -11 7 -5 0
-7 -4 -4 -10 3 -5 4 -10 0 -10 -3 0 -10 11 -15 25 -6 16 -17 25 -32 25 -13 1
36 16 107 35 328 85 720 299 946 516 49 46 47 45 -16 -9 -317 -271 -740 -475
-1090 -526 -130 -19 -425 -25 -425 -8 0 4 37 16 83 26 193 43 481 154 707 272
238 125 568 361 705 506 l60 63 -75 -71 c-232 -221 -586 -449 -928 -599 -66
-29 -86 -34 -98 -24 -8 6 -14 8 -14 4 0 -4 -6 -2 -13 4 -8 6 -17 8 -21 4 -4
-4 -4 1 -1 12 7 20 6 20 -9 1 -9 -11 -16 -14 -16 -8 0 7 -5 12 -11 12 -5 0 -7
-4 -4 -10 4 -6 -1 -7 -11 -3 -14 5 -13 8 7 19 21 12 19 19 -3 15 -5 0 -8 6 -8
15 0 12 -6 15 -27 10 -32 -7 -12 7 26 19 18 5 22 4 16 -5 -5 -9 -4 -11 3 -6 7
4 12 2 12 -5 0 -7 3 -9 6 -6 4 4 2 13 -4 20 -10 11 5 21 76 51 327 141 736
407 917 597 56 59 54 58 -20 -12 -344 -324 -937 -639 -1437 -764 -155 -38
-164 -27 -12 16 200 57 484 185 468 211 -4 7 -2 8 4 4 6 -4 28 3 49 14 27 15
31 19 13 15 -14 -3 -88 -21 -165 -40 -350 -86 -877 -155 -1177 -155 -87 0
-107 4 -224 44 -71 25 -181 67 -244 95 l-115 50 225 1 c809 1 1592 134 2057
350 177 82 362 229 475 376 12 16 -23 -19 -79 -77 -169 -175 -336 -278 -598
-369 -141 -48 -384 -114 -393 -106 -3 3 2 6 11 6 10 0 17 7 17 16 0 8 -4 12
-10 9 -6 -3 -7 1 -3 10 3 9 9 12 12 7 3 -5 15 -6 26 -1 11 4 14 8 7 8 -7 1
-10 6 -7 11 3 6 -1 13 -10 16 -9 4 -13 13 -10 24 3 9 -1 23 -10 30 -10 8 -15
9 -15 1 0 -6 5 -11 10 -11 6 0 10 -5 10 -11 0 -6 -6 -9 -14 -6 -7 3 -19 0 -25
-6 -8 -8 -11 -7 -11 6 0 9 5 17 10 17 6 0 10 6 10 13 0 7 45 27 103 45 311
101 643 289 817 462 71 70 73 73 10 14 -170 -162 -455 -329 -736 -432 -225
-83 -577 -162 -719 -162 -118 0 -387 27 -565 56 -283 47 -634 146 -889 251
-186 76 -541 274 -631 352 l-42 36 -3 550 c-3 623 0 695 39 778 58 121 176
213 305 237 29 5 168 10 308 10 250 0 254 0 276 23 12 12 54 82 92 156 82 156
130 215 217 262 l63 34 535 0 c533 0 535 0 585 -22 28 -13 41 -16 30 -8 -50
39 -104 44 -475 46 -202 1 -360 5 -360 10 0 5 8 9 18 9 14 0 15 2 2 10 -8 5
-11 10 -6 10 5 0 17 -6 25 -13 11 -9 28 -11 51 -6 30 5 31 7 8 8 -14 0 -29 7
-31 14 -3 6 -6 3 -7 -8 l-1 -20 -8 20 c-6 14 -4 22 8 27 14 6 14 7 -1 7 -10 1
-18 9 -19 19 0 14 -2 14 -9 -3 -5 -11 -9 -15 -9 -8 -1 6 -17 17 -36 23 -26 9
-35 17 -34 33 1 16 3 17 6 5 2 -9 10 -19 18 -22 10 -3 12 0 8 11 -4 11 -2 14
5 9 7 -4 12 -3 12 2 0 5 -14 13 -32 18 -17 5 -33 15 -36 22 -2 8 3 10 15 6 11
-3 9 0 -5 9 -21 12 -22 15 -8 26 9 8 16 19 16 25 0 6 -5 3 -11 -7 -6 -9 -15
-15 -20 -11 -6 4 -4 15 5 30 19 28 20 34 5 34 -5 0 -8 -4 -5 -9 3 -5 -4 -15
-17 -23 -19 -13 -24 -12 -39 4 -20 20 -10 25 12 6 8 -8 6 -1 -4 15 -21 34 -16
45 9 21 16 -17 17 -17 13 2 -2 11 -12 19 -26 20 -12 1 -24 3 -27 4 -3 1 -10 3
-17 4 -6 0 -13 8 -15 16 -4 13 -3 13 7 0 9 -13 11 -12 8 5 -3 14 -11 20 -26
19 -22 -1 -22 0 5 22 15 13 23 23 16 24 -6 0 -14 -6 -16 -12 -5 -12 -11 17 -8
35 1 5 -3 6 -9 2 -6 -3 -7 -12 -4 -18 4 -7 -5 -1 -20 13 -15 13 -23 26 -17 28
5 2 7 10 4 19 -5 12 -3 14 7 8 9 -6 11 -4 5 5 -4 7 -2 16 6 22 11 8 10 8 -4 4
-15 -5 -17 -2 -12 17 5 16 4 18 -4 8 -10 -16 -45 -25 -35 -10 3 5 9 7 14 4 4
-3 3 6 -3 20 -7 14 -15 25 -19 25 -5 0 -8 9 -8 20 0 11 -6 20 -12 21 -10 0
-10 2 0 6 10 4 10 8 0 21 -10 12 -10 14 0 8 6 -4 12 -2 12 3 0 6 -6 12 -12 12
-7 1 -20 2 -28 3 -8 1 -21 -3 -29 -9 -12 -9 -12 -7 0 14 11 19 11 25 1 28 -9
4 -10 9 -3 17 8 9 6 18 -5 32 -15 18 -15 18 -9 -2 5 -19 2 -21 -30 -20 -19 0
-35 1 -35 2 0 0 9 9 20 19 20 18 21 18 14 -1 -6 -15 -4 -17 6 -7 11 10 10 16
-6 34 -10 12 -18 23 -16 25 8 13 0 25 -13 20 -9 -3 -15 0 -15 10 0 8 -7 22
-15 30 -8 9 -15 24 -15 35 0 16 8 19 53 21 28 2 -173 5 -448 8 -277 3 230 6
1135 8 1040 1 1688 -2 1780 -8z m-3532 -7 c-21 -2 -57 -2 -80 0 -24 2 -7 4 37
4 44 0 63 -2 43 -4z m-165 -10 c-7 -2 -21 -2 -30 0 -10 3 -4 5 12 5 17 0 24
-2 18 -5z m1157 -12 c-14 -26 -13 -31 5 -25 8 4 15 1 15 -5 0 -6 -11 -10 -24
-9 -14 1 -22 6 -19 11 2 4 -1 16 -9 25 -12 15 -11 16 5 3 15 -12 17 -11 17 3
0 9 5 16 10 16 7 0 7 -6 0 -19z m-1237 2 c-7 -2 -19 -2 -25 0 -7 3 -2 5 12 5
14 0 19 -2 13 -5z m-60 -10 c-7 -2 -19 -2 -25 0 -7 3 -2 5 12 5 14 0 19 -2 13
-5z m-56 -9 c-3 -3 -12 -4 -19 -1 -8 3 -5 6 6 6 11 1 17 -2 13 -5z m1553 -283
c0 -12 -20 -25 -27 -18 -7 7 6 27 18 27 5 0 9 -4 9 -9z m300 -601 c0 -5 -2
-10 -4 -10 -3 0 -8 5 -11 10 -3 6 -1 10 4 10 6 0 11 -4 11 -10z m-243 -6 c-3
-3 -12 -4 -19 -1 -8 3 -5 6 6 6 11 1 17 -2 13 -5z m-870 -2550 c156 -68 332
-132 491 -178 160 -47 439 -116 469 -116 14 0 21 -4 18 -10 -15 -24 -456 -8
-710 26 -152 20 -185 37 -365 191 -78 67 -230 224 -230 237 0 4 45 -17 101
-44 55 -28 157 -76 226 -106z m2138 -144 c-11 -5 -27 -9 -35 -9 -9 0 -8 4 5 9
11 5 27 9 35 9 9 0 8 -4 -5 -9z m-138 -36 c-3 -3 -12 -4 -19 -1 -8 3 -5 6 6 6
11 1 17 -2 13 -5z m197 -23 c11 -4 15 -10 10 -13 -10 -6 -54 8 -54 17 0 7 21
5 44 -4z m-44 -81 c0 -5 -8 -10 -17 -10 -15 0 -16 2 -3 10 19 12 20 12 20 0z
m-53 -16 c-3 -3 -12 -4 -19 -1 -8 3 -5 6 6 6 11 1 17 -2 13 -5z m213 -194
c-40 -28 -50 -31 -50 -16 0 14 17 23 50 25 13 1 13 0 0 -9z m-97 -27 c-7 -2
-21 -2 -30 0 -10 3 -4 5 12 5 17 0 24 -2 18 -5z m-56 -9 c-3 -3 -12 -4 -19 -1
-8 3 -5 6 6 6 11 1 17 -2 13 -5z m83 -4 c-8 -5 -19 -10 -25 -10 -5 0 -3 5 5
10 8 5 20 10 25 10 6 0 3 -5 -5 -10z m106 -156 c-5 -12 -2 -15 10 -10 8 3 20
6 25 6 6 0 8 4 5 8 -3 5 1 9 9 9 8 0 15 -4 15 -8 0 -9 -92 -41 -98 -34 -3 3 0
5 7 5 8 0 11 6 7 16 -3 8 -2 12 4 9 6 -3 10 -1 10 4 0 6 3 11 6 11 3 0 3 -7 0
-16z m42 -171 c-10 -2 -26 -2 -35 0 -10 3 -2 5 17 5 19 0 27 -2 18 -5z m-95
-10 c-7 -2 -21 -2 -30 0 -10 3 -4 5 12 5 17 0 24 -2 18 -5z m260 -80 c-7 -2
-19 -2 -25 0 -7 3 -2 5 12 5 14 0 19 -2 13 -5z m-50 -10 c-7 -2 -19 -2 -25 0
-7 3 -2 5 12 5 14 0 19 -2 13 -5z m-55 -10 c-10 -2 -26 -2 -35 0 -10 3 -2 5
17 5 19 0 27 -2 18 -5z m-75 -10 c-7 -2 -21 -2 -30 0 -10 3 -4 5 12 5 17 0 24
-2 18 -5z m-276 -9 c-3 -3 -12 -4 -19 -1 -8 3 -5 6 6 6 11 1 17 -2 13 -5z
m131 -1 c-21 -2 -57 -2 -80 0 -24 2 -7 4 37 4 44 0 63 -2 43 -4z m-2237 -208
c448 -145 888 -184 1460 -130 141 14 210 15 340 8 l164 -9 -59 -27 c-122 -58
-413 -125 -656 -152 -251 -28 -607 -15 -817 30 -240 50 -487 178 -656 336
l-52 49 81 -34 c45 -19 133 -51 195 -71z m2586 9 c-3 -3 -12 -4 -19 -1 -8 3
-5 6 6 6 11 1 17 -2 13 -5z m-54 -11 c-7 -2 -19 -2 -25 0 -7 3 -2 5 12 5 14 0
19 -2 13 -5z m-60 -10 c-7 -2 -19 -2 -25 0 -7 3 -2 5 12 5 14 0 19 -2 13 -5z
m-86 -9 c-3 -3 -12 -4 -19 -1 -8 3 -5 6 6 6 11 1 17 -2 13 -5z m420 -37 c-146
-127 -408 -286 -571 -348 -220 -83 -538 -148 -796 -164 -125 -7 -332 8 -479
36 -120 23 -343 80 -337 86 2 3 51 -1 108 -8 133 -15 394 -7 598 20 375 49
697 135 984 261 71 31 155 59 231 75 66 15 158 40 205 55 47 15 90 28 95 29 6
0 -12 -19 -38 -42z m-120 7 c-3 -3 -12 -4 -19 -1 -8 3 -5 6 6 6 11 1 17 -2 13
-5z m-70 -20 c-3 -3 -12 -4 -19 -1 -8 3 -5 6 6 6 11 1 17 -2 13 -5z m-50 -10
c-3 -3 -12 -4 -19 -1 -8 3 -5 6 6 6 11 1 17 -2 13 -5z m153 -68 c0 -2 -8 -10
-17 -17 -16 -13 -17 -12 -4 4 13 16 21 21 21 13z m362 -230 c-3 -6 -7 -5 -10
2 -2 7 -7 10 -12 7 -4 -3 -6 4 -3 15 5 19 6 19 18 3 7 -10 11 -22 7 -27z m-20
-20 c5 4 4 -4 -2 -17 -18 -34 -24 -38 -17 -11 3 12 1 22 -5 22 -5 0 -6 5 -2
12 6 9 9 9 12 0 2 -7 8 -9 14 -6z m28 -36 c0 -5 -5 -10 -11 -10 -5 0 -7 5 -4
10 3 6 8 10 11 10 2 0 4 -4 4 -10z m3 -35 c-3 -9 -8 -14 -10 -11 -3 3 -2 9 2
15 9 16 15 13 8 -4z m127 -320 c7 -9 8 -15 2 -15 -5 0 -12 7 -16 15 -3 8 -4
15 -2 15 2 0 9 -7 16 -15z m151 -292 c13 -15 16 -22 7 -14 -9 7 -22 10 -28 6
-6 -3 -10 3 -10 14 0 27 2 26 31 -6z m-4987 -814 c82 -15 139 -42 192 -91 70
-64 87 -106 92 -220 6 -125 -13 -184 -77 -248 -83 -82 -170 -110 -348 -110
l-123 0 0 -185 0 -185 -100 0 -100 0 0 525 0 525 203 0 c112 0 229 -5 261 -11z
m576 -181 l0 -192 38 36 c60 58 97 73 182 73 122 -1 207 -55 259 -165 26 -54
26 -58 29 -332 l3 -278 -95 0 -96 0 0 248 c0 277 -4 294 -71 340 -44 31 -129
28 -176 -6 -62 -44 -68 -71 -71 -339 l-3 -243 -94 0 -95 0 0 525 0 525 95 0
95 0 0 -192z m3275 -172 l250 -363 3 364 2 363 95 0 95 0 0 -525 0 -525 -94 0
-95 0 -248 361 -248 361 -3 -361 -2 -361 -95 0 -95 0 0 525 0 525 93 0 92 -1
250 -363z m-1545 174 l0 -100 90 0 90 0 0 -75 0 -75 -90 0 -90 0 0 -205 0
-206 26 -26 c23 -23 31 -25 90 -21 l65 4 -3 -81 -3 -80 -94 -3 c-84 -2 -100 0
-146 23 -56 27 -98 77 -115 136 -6 19 -10 130 -10 246 l0 213 -55 0 -55 0 0
75 0 75 55 0 55 0 0 100 0 100 95 0 95 0 0 -100z m3910 0 l0 -100 85 0 85 0 0
-75 0 -75 -86 0 -85 0 3 -210 c4 -249 2 -245 103 -245 l65 0 0 -76 c0 -89 0
-89 -98 -89 -86 0 -128 12 -175 51 -73 60 -77 78 -77 339 l0 230 -55 0 -55 0
0 75 0 75 55 0 55 0 0 100 0 100 90 0 90 0 0 -100z m-4535 -95 c158 -42 269
-178 282 -347 16 -212 -95 -375 -289 -424 -254 -65 -488 120 -488 386 0 272
232 453 495 385z m1399 -23 c151 -71 236 -224 223 -401 -7 -93 -57 -200 -118
-256 -98 -88 -242 -123 -369 -91 -118 31 -199 99 -254 216 -29 60 -31 73 -31
170 0 97 2 110 31 170 37 79 78 128 142 169 108 69 258 78 376 23z m1817 22
c152 -44 243 -169 256 -351 l6 -83 -275 0 -275 0 7 -37 c10 -58 37 -101 79
-128 47 -31 124 -42 177 -25 43 14 94 56 94 78 0 10 7 12 23 9 12 -3 45 -9 73
-13 81 -10 83 -15 41 -78 -71 -106 -164 -151 -312 -151 -70 1 -103 6 -148 24
-116 46 -199 162 -217 305 -38 304 197 529 471 450z m791 -3 c61 -19 120 -71
152 -135 34 -66 32 -70 -48 -80 -28 -4 -60 -9 -72 -12 -17 -5 -22 0 -27 25 -9
45 -57 71 -130 71 -93 0 -141 -36 -129 -98 7 -36 50 -56 170 -81 61 -13 129
-34 157 -49 126 -69 151 -222 53 -328 -59 -64 -127 -88 -253 -88 -135 -1 -191
18 -266 93 -48 48 -90 123 -77 136 2 2 40 10 83 17 l80 14 20 -39 c28 -54 73
-77 153 -77 101 0 156 43 132 104 -14 38 -47 54 -155 76 -131 27 -155 35 -205
71 -99 72 -106 222 -14 313 34 33 88 62 141 76 47 11 185 6 235 -9z"/>
<path d="M4533 11503 c9 -2 23 -2 30 0 6 3 -1 5 -18 5 -16 0 -22 -2 -12 -5z"/>
<path d="M4435 11460 c-3 -5 -1 -10 4 -10 6 0 11 5 11 10 0 6 -2 10 -4 10 -3
0 -8 -4 -11 -10z"/>
<path d="M4450 11429 c0 -5 5 -7 10 -4 6 3 10 8 10 11 0 2 -4 4 -10 4 -5 0
-10 -5 -10 -11z"/>
<path d="M4610 11180 c0 -5 5 -10 11 -10 5 0 7 5 4 10 -3 6 -8 10 -11 10 -2 0
-4 -4 -4 -10z"/>
<path d="M4647 11173 c-4 -3 -7 -13 -7 -22 1 -13 3 -13 11 2 11 19 8 33 -4 20z"/>
<path d="M4696 11061 c-3 -5 2 -15 12 -22 15 -12 16 -12 5 2 -7 9 -10 19 -6
22 3 4 4 7 0 7 -3 0 -8 -4 -11 -9z"/>
<path d="M4666 11035 c-3 -8 -1 -15 4 -15 13 0 22 18 11 24 -5 3 -11 -1 -15
-9z"/>
<path d="M4728 10953 c6 -2 12 -13 12 -23 0 -12 7 -18 19 -17 12 1 17 6 14 15
-4 10 -8 11 -13 2 -5 -8 -9 -4 -13 9 -3 12 -11 21 -19 20 -10 0 -10 -2 0 -6z"/>
<path d="M4986 10618 c3 -4 9 -8 15 -8 5 0 9 4 9 8 0 5 -7 9 -15 9 -8 0 -12
-4 -9 -9z"/>
<path d="M5801 10468 c26 -25 59 -66 74 -92 29 -50 45 -63 21 -18 -27 51 -74
109 -108 132 -27 19 -24 15 13 -22z"/>
<path d="M5965 10210 c30 -60 64 -114 74 -120 13 -6 114 -9 278 -8 l258 2
-270 6 c-148 3 -271 7 -272 8 -2 1 -28 52 -58 112 -30 61 -57 110 -60 110 -3
0 20 -49 50 -110z"/>
<path d="M6603 10073 c9 -2 23 -2 30 0 6 3 -1 5 -18 5 -16 0 -22 -2 -12 -5z"/>
<path d="M6795 9990 c10 -11 20 -20 23 -20 3 0 -3 9 -13 20 -10 11 -20 20 -23
20 -3 0 3 -9 13 -20z"/>
<path d="M6850 9936 c0 -2 8 -10 18 -17 15 -13 16 -12 3 4 -13 16 -21 21 -21
13z"/>
<path d="M4995 9670 c-310 -49 -560 -272 -647 -576 -32 -113 -32 -305 0 -418
84 -295 325 -513 630 -572 95 -18 168 -18 277 1 311 55 558 285 636 595 18 72
21 103 16 220 -5 148 -18 201 -73 315 -100 205 -294 363 -514 419 -80 20 -244
28 -325 16z m32 -16 c-3 -3 -12 -4 -19 -1 -8 3 -5 6 6 6 11 1 17 -2 13 -5z
m295 -15 c149 -38 273 -111 375 -224 137 -149 202 -320 203 -528 0 -122 -21
-217 -71 -326 -35 -74 -41 -82 -55 -70 -11 9 -12 15 -5 17 8 3 7 8 -3 16 -11
8 -13 15 -6 26 8 13 10 13 10 -1 0 -9 6 -21 13 -27 9 -8 15 -4 24 15 12 24 11
25 -6 9 -17 -16 -19 -15 -25 6 l-6 23 -19 -25 c-11 -14 -23 -21 -27 -17 -4 4
-3 7 2 7 5 0 9 14 9 30 1 17 -3 30 -7 30 -4 0 -8 10 -8 21 0 18 -2 20 -16 9
-8 -8 -14 -9 -12 -3 2 6 -8 20 -22 32 -14 13 -20 20 -13 17 19 -10 25 11 7 28
-8 9 -11 16 -5 16 6 0 11 5 11 11 0 5 -4 7 -10 4 -6 -3 -7 1 -4 9 3 9 10 13
15 10 5 -3 8 6 7 20 -1 13 -6 22 -10 20 -4 -3 -8 3 -9 13 -1 10 -6 -2 -11 -25
-15 -67 -18 -46 -5 39 25 176 -59 380 -198 480 -28 20 -41 35 -34 40 8 5 8 8
0 13 -6 4 -11 2 -11 -3 0 -6 -4 -11 -9 -11 -5 0 -7 9 -4 20 3 11 9 18 13 15 5
-3 11 -1 15 5 3 6 -1 13 -10 17 -10 3 -21 0 -26 -8 -7 -12 -9 -12 -9 1 0 13
-1 13 -10 0 -5 -8 -10 -10 -10 -5 0 6 -4 4 -9 -4 -7 -10 -12 -11 -27 -1 -16
10 -16 11 -1 6 13 -4 17 0 17 17 0 18 2 19 10 7 8 -11 9 -9 8 13 -1 15 -6 27
-11 27 -5 0 -6 7 -3 16 5 12 2 15 -11 10 -15 -5 -15 -4 1 9 19 15 19 15 -2 15
-12 0 -22 5 -22 11 0 5 4 8 9 4 6 -3 15 3 20 13 9 16 7 19 -12 18 -27 -1 -34
26 -12 48 9 9 13 16 8 16 -4 0 -1 5 7 11 12 9 11 10 -8 6 -13 -3 -20 -1 -16 5
3 5 0 8 -7 7 -8 -1 -21 1 -29 4 -8 3 -26 8 -40 10 -24 4 -24 4 -2 6 13 0 60
-8 104 -20z m-115 -225 c-3 -3 -12 -4 -19 -1 -8 3 -5 6 6 6 11 1 17 -2 13 -5z
m88 -14 c-3 -5 -12 -10 -18 -10 -7 0 -6 4 3 10 19 12 23 12 15 0z m-46 -15
c161 -42 295 -162 351 -313 71 -189 28 -392 -112 -538 -203 -211 -522 -214
-727 -7 -107 109 -151 215 -151 363 0 229 159 434 381 494 70 19 190 20 258 1z
m131 -25 c0 -5 -7 -7 -15 -4 -8 4 -12 10 -9 15 6 11 24 2 24 -11z m244 -668
c-9 -8 -12 -22 -9 -30 3 -9 3 -13 -1 -9 -4 4 -13 -1 -20 -11 -8 -9 -4 6 9 34
12 28 25 47 29 41 3 -6 0 -17 -8 -25z m93 -102 c11 -17 10 -18 -4 -13 -13 5
-15 2 -9 -12 4 -11 3 -16 -1 -11 -9 9 -12 56 -3 56 3 0 11 -9 17 -20z m32
-167 c-16 -23 -35 -45 -41 -49 -6 -4 0 8 14 27 30 41 41 69 27 69 -6 0 -7 4
-4 10 4 6 11 5 19 -3 11 -10 8 -19 -15 -54z"/>
<path d="M5346 9517 c3 -10 9 -15 12 -12 3 3 0 11 -7 18 -10 9 -11 8 -5 -6z"/>
<path d="M5360 9466 c0 -2 8 -10 18 -17 15 -13 16 -12 3 4 -13 16 -21 21 -21
13z"/>
<path d="M5660 8860 c0 -5 5 -10 11 -10 5 0 7 5 4 10 -3 6 -8 10 -11 10 -2 0
-4 -4 -4 -10z"/>
<path d="M7310 8676 c0 -2 7 -7 16 -10 8 -3 12 -2 9 4 -6 10 -25 14 -25 6z"/>
<path d="M7201 8644 c-12 -15 -21 -32 -21 -38 0 -6 6 -2 12 9 6 11 18 28 26
38 8 9 12 17 9 17 -3 0 -15 -12 -26 -26z"/>
<path d="M7156 8555 c-9 -26 -7 -32 5 -12 6 10 9 21 6 23 -2 3 -7 -2 -11 -11z"/>
<path d="M7100 8440 c-6 -11 -8 -20 -6 -20 3 0 10 9 16 20 6 11 8 20 6 20 -3
0 -10 -9 -16 -20z"/>
<path d="M7312 8375 c-12 -25 -20 -45 -17 -45 7 0 47 81 43 86 -3 2 -14 -17
-26 -41z"/>
<path d="M7055 8368 c-16 -24 -22 -38 -14 -31 15 12 53 73 46 73 -2 0 -17 -19
-32 -42z"/>
<path d="M7270 8300 c-6 -11 -8 -20 -6 -20 3 0 10 9 16 20 6 11 8 20 6 20 -3
0 -10 -9 -16 -20z"/>
<path d="M7219 8223 c-13 -16 -12 -17 4 -4 9 7 17 15 17 17 0 8 -8 3 -21 -13z"/>
<path d="M7184 8178 l-19 -23 23 19 c21 18 27 26 19 26 -2 0 -12 -10 -23 -22z"/>
<path d="M7418 8163 c6 -2 18 -2 25 0 6 3 1 5 -13 5 -14 0 -19 -2 -12 -5z"/>
<path d="M7375 8150 c-3 -6 1 -7 9 -4 18 7 21 14 7 14 -6 0 -13 -4 -16 -10z"/>
<path d="M7304 8068 l-19 -23 23 19 c21 18 27 26 19 26 -2 0 -12 -10 -23 -22z"/>
<path d="M7531 8074 c0 -11 3 -14 6 -6 3 7 2 16 -1 19 -3 4 -6 -2 -5 -13z"/>
<path d="M7531 8034 c0 -11 3 -14 6 -6 3 7 2 16 -1 19 -3 4 -6 -2 -5 -13z"/>
<path d="M7469 7933 c-13 -16 -12 -17 4 -4 9 7 17 15 17 17 0 8 -8 3 -21 -13z"/>
<path d="M7424 7878 l-29 -33 33 29 c30 28 37 36 29 36 -2 0 -16 -15 -33 -32z"/>
<path d="M5975 7890 c3 -5 8 -10 11 -10 2 0 4 5 4 10 0 6 -5 10 -11 10 -5 0
-7 -4 -4 -10z"/>
<path d="M7356 7802 l-30 -37 37 34 c38 36 42 42 30 40 -5 0 -21 -17 -37 -37z"/>
<path d="M7195 7469 c-59 -45 -67 -57 -13 -20 26 17 50 36 53 41 9 14 5 12
-40 -21z"/>
<path d="M7245 7469 c-4 -6 -5 -12 -2 -15 2 -3 7 2 10 11 7 17 1 20 -8 4z"/>
<path d="M6145 7419 c-4 -6 -5 -12 -2 -15 2 -3 7 2 10 11 7 17 1 20 -8 4z"/>
<path d="M6250 7167 c0 -5 6 -7 14 -4 8 3 16 2 18 -3 2 -4 9 -2 16 6 11 12 9
14 -17 12 -17 -1 -31 -6 -31 -11z"/>
<path d="M6560 6881 c0 -5 7 -12 16 -15 14 -5 15 -4 4 9 -14 17 -20 19 -20 6z"/>
<path d="M6689 6707 c12 -15 11 -17 -3 -17 -9 0 -16 -5 -16 -11 0 -5 4 -8 9
-5 5 4 12 0 14 -6 4 -8 6 -7 6 4 1 9 6 18 11 20 6 2 0 9 -12 17 -21 13 -22 13
-9 -2z"/>
<path d="M6736 6615 c-3 -8 0 -17 6 -21 6 -4 8 -3 4 4 -3 6 2 12 11 14 16 3
17 4 1 10 -10 4 -18 1 -22 -7z"/>
<path d="M6876 6493 c-6 -14 -5 -15 5 -6 7 7 10 15 7 18 -3 3 -9 -2 -12 -12z"/>
<path d="M6935 6310 c4 -6 11 -8 16 -5 14 9 11 15 -7 15 -8 0 -12 -5 -9 -10z"/>
<path d="M6960 6240 c0 -6 7 -10 15 -10 8 0 15 2 15 4 0 2 -7 6 -15 10 -8 3
-15 1 -15 -4z"/>
<path d="M7102 5970 c0 -14 2 -19 5 -12 2 6 2 18 0 25 -3 6 -5 1 -5 -13z"/>
<path d="M7318 5673 c7 -3 16 -2 19 1 4 3 -2 6 -13 5 -11 0 -14 -3 -6 -6z"/>
<path d="M1890 4604 l0 -179 117 3 c182 5 225 36 231 165 3 62 1 77 -20 106
-40 60 -75 73 -209 79 l-119 5 0 -179z"/>
<path d="M3705 4505 c-5 -2 -22 -6 -38 -9 -15 -4 -45 -22 -67 -42 -100 -90
-91 -299 16 -380 42 -33 129 -44 188 -24 156 51 169 357 18 434 -28 14 -100
27 -117 21z"/>
<path d="M5023 4500 c-150 -35 -207 -270 -97 -399 42 -48 87 -65 164 -59 100
7 163 77 177 197 19 163 -103 295 -244 261z"/>
<path d="M6887 4505 c-64 -22 -117 -88 -117 -144 0 -21 4 -21 175 -21 166 0
175 1 175 19 0 58 -61 135 -120 151 -46 13 -67 12 -113 -5z"/>
</g>
</svg>
